<mxfile host="app.diagrams.net" modified="2024-06-13T09:26:32.119Z" agent="Mozilla/5.0 (Windows NT 10.0; Win64; x64) AppleWebKit/537.36 (KHTML, like Gecko) Chrome/125.0.0.0 Safari/537.36" etag="RCRiGz7XHXkcCrwqT3IM" version="24.5.4" type="github">
  <diagram id="C5RBs43oDa-KdzZeNtuy" name="Page-1">
    <mxGraphModel dx="1194" dy="592" grid="1" gridSize="10" guides="1" tooltips="1" connect="1" arrows="1" fold="1" page="1" pageScale="1" pageWidth="827" pageHeight="1169" math="0" shadow="0">
      <root>
        <mxCell id="WIyWlLk6GJQsqaUBKTNV-0" />
        <mxCell id="WIyWlLk6GJQsqaUBKTNV-1" parent="WIyWlLk6GJQsqaUBKTNV-0" />
        <mxCell id="52LDFo53aAOOZvcBzFZm-2" value="" style="edgeStyle=orthogonalEdgeStyle;rounded=0;orthogonalLoop=1;jettySize=auto;html=1;" edge="1" parent="WIyWlLk6GJQsqaUBKTNV-1" source="52LDFo53aAOOZvcBzFZm-0" target="52LDFo53aAOOZvcBzFZm-1">
          <mxGeometry relative="1" as="geometry" />
        </mxCell>
        <mxCell id="52LDFo53aAOOZvcBzFZm-0" value="删除项目" style="rounded=1;whiteSpace=wrap;html=1;fontSize=12;glass=0;strokeWidth=1;shadow=0;" vertex="1" parent="WIyWlLk6GJQsqaUBKTNV-1">
          <mxGeometry x="570" y="80" width="120" height="40" as="geometry" />
        </mxCell>
        <mxCell id="52LDFo53aAOOZvcBzFZm-4" value="" style="edgeStyle=orthogonalEdgeStyle;rounded=0;orthogonalLoop=1;jettySize=auto;html=1;" edge="1" parent="WIyWlLk6GJQsqaUBKTNV-1" source="52LDFo53aAOOZvcBzFZm-1" target="52LDFo53aAOOZvcBzFZm-3">
          <mxGeometry relative="1" as="geometry" />
        </mxCell>
        <mxCell id="52LDFo53aAOOZvcBzFZm-5" value="Y" style="edgeLabel;html=1;align=center;verticalAlign=middle;resizable=0;points=[];" vertex="1" connectable="0" parent="52LDFo53aAOOZvcBzFZm-4">
          <mxGeometry x="-0.15" y="-3" relative="1" as="geometry">
            <mxPoint as="offset" />
          </mxGeometry>
        </mxCell>
        <mxCell id="52LDFo53aAOOZvcBzFZm-1" value="判断权限" style="rhombus;whiteSpace=wrap;html=1;rounded=1;glass=0;strokeWidth=1;shadow=0;" vertex="1" parent="WIyWlLk6GJQsqaUBKTNV-1">
          <mxGeometry x="590" y="180" width="80" height="80" as="geometry" />
        </mxCell>
        <mxCell id="52LDFo53aAOOZvcBzFZm-10" value="" style="edgeStyle=orthogonalEdgeStyle;rounded=0;orthogonalLoop=1;jettySize=auto;html=1;" edge="1" parent="WIyWlLk6GJQsqaUBKTNV-1" source="52LDFo53aAOOZvcBzFZm-3" target="52LDFo53aAOOZvcBzFZm-9">
          <mxGeometry relative="1" as="geometry" />
        </mxCell>
        <mxCell id="52LDFo53aAOOZvcBzFZm-11" value="N" style="edgeLabel;html=1;align=center;verticalAlign=middle;resizable=0;points=[];" vertex="1" connectable="0" parent="52LDFo53aAOOZvcBzFZm-10">
          <mxGeometry x="-0.1333" y="1" relative="1" as="geometry">
            <mxPoint as="offset" />
          </mxGeometry>
        </mxCell>
        <mxCell id="52LDFo53aAOOZvcBzFZm-13" value="" style="edgeStyle=orthogonalEdgeStyle;rounded=0;orthogonalLoop=1;jettySize=auto;html=1;" edge="1" parent="WIyWlLk6GJQsqaUBKTNV-1" source="52LDFo53aAOOZvcBzFZm-3" target="52LDFo53aAOOZvcBzFZm-12">
          <mxGeometry relative="1" as="geometry" />
        </mxCell>
        <mxCell id="52LDFo53aAOOZvcBzFZm-3" value="删除检查" style="rhombus;whiteSpace=wrap;html=1;rounded=1;glass=0;strokeWidth=1;shadow=0;" vertex="1" parent="WIyWlLk6GJQsqaUBKTNV-1">
          <mxGeometry x="590" y="340" width="80" height="80" as="geometry" />
        </mxCell>
        <mxCell id="52LDFo53aAOOZvcBzFZm-6" value="pid是否存在" style="text;html=1;align=center;verticalAlign=middle;whiteSpace=wrap;rounded=0;" vertex="1" parent="WIyWlLk6GJQsqaUBKTNV-1">
          <mxGeometry x="510" y="365" width="70" height="30" as="geometry" />
        </mxCell>
        <mxCell id="52LDFo53aAOOZvcBzFZm-9" value="抛出异常" style="whiteSpace=wrap;html=1;rounded=1;glass=0;strokeWidth=1;shadow=0;" vertex="1" parent="WIyWlLk6GJQsqaUBKTNV-1">
          <mxGeometry x="730" y="350" width="120" height="60" as="geometry" />
        </mxCell>
        <mxCell id="52LDFo53aAOOZvcBzFZm-15" value="" style="edgeStyle=orthogonalEdgeStyle;rounded=0;orthogonalLoop=1;jettySize=auto;html=1;" edge="1" parent="WIyWlLk6GJQsqaUBKTNV-1" source="52LDFo53aAOOZvcBzFZm-12" target="52LDFo53aAOOZvcBzFZm-14">
          <mxGeometry relative="1" as="geometry" />
        </mxCell>
        <mxCell id="52LDFo53aAOOZvcBzFZm-12" value="查出项目实体" style="whiteSpace=wrap;html=1;rounded=1;glass=0;strokeWidth=1;shadow=0;" vertex="1" parent="WIyWlLk6GJQsqaUBKTNV-1">
          <mxGeometry x="570" y="510" width="120" height="60" as="geometry" />
        </mxCell>
        <mxCell id="52LDFo53aAOOZvcBzFZm-17" value="" style="edgeStyle=orthogonalEdgeStyle;rounded=0;orthogonalLoop=1;jettySize=auto;html=1;" edge="1" parent="WIyWlLk6GJQsqaUBKTNV-1" source="52LDFo53aAOOZvcBzFZm-14" target="52LDFo53aAOOZvcBzFZm-16">
          <mxGeometry relative="1" as="geometry" />
        </mxCell>
        <mxCell id="52LDFo53aAOOZvcBzFZm-14" value="查出关联应用" style="whiteSpace=wrap;html=1;rounded=1;glass=0;strokeWidth=1;shadow=0;" vertex="1" parent="WIyWlLk6GJQsqaUBKTNV-1">
          <mxGeometry x="570" y="650" width="120" height="60" as="geometry" />
        </mxCell>
        <mxCell id="52LDFo53aAOOZvcBzFZm-21" value="" style="edgeStyle=orthogonalEdgeStyle;rounded=0;orthogonalLoop=1;jettySize=auto;html=1;" edge="1" parent="WIyWlLk6GJQsqaUBKTNV-1" source="52LDFo53aAOOZvcBzFZm-16" target="52LDFo53aAOOZvcBzFZm-20">
          <mxGeometry relative="1" as="geometry" />
        </mxCell>
        <mxCell id="52LDFo53aAOOZvcBzFZm-16" value="查出关联存储" style="whiteSpace=wrap;html=1;rounded=1;glass=0;strokeWidth=1;shadow=0;" vertex="1" parent="WIyWlLk6GJQsqaUBKTNV-1">
          <mxGeometry x="570" y="790" width="120" height="60" as="geometry" />
        </mxCell>
        <mxCell id="52LDFo53aAOOZvcBzFZm-18" value="删除应用流程" style="text;html=1;align=center;verticalAlign=middle;whiteSpace=wrap;rounded=0;" vertex="1" parent="WIyWlLk6GJQsqaUBKTNV-1">
          <mxGeometry x="470" y="665" width="80" height="30" as="geometry" />
        </mxCell>
        <mxCell id="52LDFo53aAOOZvcBzFZm-19" value="删除存储流程" style="text;html=1;align=center;verticalAlign=middle;whiteSpace=wrap;rounded=0;" vertex="1" parent="WIyWlLk6GJQsqaUBKTNV-1">
          <mxGeometry x="470" y="805" width="80" height="30" as="geometry" />
        </mxCell>
        <mxCell id="52LDFo53aAOOZvcBzFZm-23" value="" style="edgeStyle=orthogonalEdgeStyle;rounded=0;orthogonalLoop=1;jettySize=auto;html=1;" edge="1" parent="WIyWlLk6GJQsqaUBKTNV-1" source="52LDFo53aAOOZvcBzFZm-20" target="52LDFo53aAOOZvcBzFZm-22">
          <mxGeometry relative="1" as="geometry" />
        </mxCell>
        <mxCell id="52LDFo53aAOOZvcBzFZm-20" value="插入delete相关表" style="whiteSpace=wrap;html=1;rounded=1;glass=0;strokeWidth=1;shadow=0;" vertex="1" parent="WIyWlLk6GJQsqaUBKTNV-1">
          <mxGeometry x="570" y="930" width="120" height="60" as="geometry" />
        </mxCell>
        <mxCell id="52LDFo53aAOOZvcBzFZm-25" value="" style="edgeStyle=orthogonalEdgeStyle;rounded=0;orthogonalLoop=1;jettySize=auto;html=1;" edge="1" parent="WIyWlLk6GJQsqaUBKTNV-1" source="52LDFo53aAOOZvcBzFZm-22" target="52LDFo53aAOOZvcBzFZm-24">
          <mxGeometry relative="1" as="geometry" />
        </mxCell>
        <mxCell id="52LDFo53aAOOZvcBzFZm-22" value="查出项目Owner" style="whiteSpace=wrap;html=1;rounded=1;glass=0;strokeWidth=1;shadow=0;" vertex="1" parent="WIyWlLk6GJQsqaUBKTNV-1">
          <mxGeometry x="570" y="1070" width="120" height="60" as="geometry" />
        </mxCell>
        <mxCell id="52LDFo53aAOOZvcBzFZm-27" value="" style="edgeStyle=orthogonalEdgeStyle;rounded=0;orthogonalLoop=1;jettySize=auto;html=1;" edge="1" parent="WIyWlLk6GJQsqaUBKTNV-1" source="52LDFo53aAOOZvcBzFZm-24" target="52LDFo53aAOOZvcBzFZm-26">
          <mxGeometry relative="1" as="geometry" />
        </mxCell>
        <mxCell id="52LDFo53aAOOZvcBzFZm-24" value="删除项目表" style="whiteSpace=wrap;html=1;rounded=1;glass=0;strokeWidth=1;shadow=0;" vertex="1" parent="WIyWlLk6GJQsqaUBKTNV-1">
          <mxGeometry x="570" y="1210" width="120" height="60" as="geometry" />
        </mxCell>
        <mxCell id="52LDFo53aAOOZvcBzFZm-26" value="邮件通知" style="whiteSpace=wrap;html=1;rounded=1;glass=0;strokeWidth=1;shadow=0;" vertex="1" parent="WIyWlLk6GJQsqaUBKTNV-1">
          <mxGeometry x="570" y="1350" width="120" height="60" as="geometry" />
        </mxCell>
        <mxCell id="52LDFo53aAOOZvcBzFZm-32" value="" style="edgeStyle=orthogonalEdgeStyle;rounded=0;orthogonalLoop=1;jettySize=auto;html=1;exitX=1.001;exitY=0.404;exitDx=0;exitDy=0;exitPerimeter=0;" edge="1" parent="WIyWlLk6GJQsqaUBKTNV-1" source="52LDFo53aAOOZvcBzFZm-31" target="52LDFo53aAOOZvcBzFZm-22">
          <mxGeometry relative="1" as="geometry" />
        </mxCell>
        <mxCell id="52LDFo53aAOOZvcBzFZm-31" value="&lt;h1 style=&quot;margin-top: 0px;&quot;&gt;Owner查询&lt;/h1&gt;&lt;div&gt;&lt;ol&gt;&lt;li&gt;查询管理员select u.id ,u.username,u.realname,u.email,u.mobilephone from sys_user u left join sys_user_role ur on u.id = ur.userid where ur.roleid = 1&lt;/li&gt;&lt;li&gt;查询项目owner select u.id ,u.username,u.realname,u.email,u.mobilephone from sys_user u left join project_permission pp on u.id = pp.uid where pp.permission &amp;gt;= 0 and pp.pid = ${pid}&lt;/li&gt;&lt;li&gt;&amp;nbsp;&lt;b&gt;邮件通知对象为管理员与项目owner&lt;/b&gt;&lt;br&gt;&lt;/li&gt;&lt;/ol&gt;&lt;/div&gt;" style="text;html=1;whiteSpace=wrap;overflow=hidden;rounded=0;" vertex="1" parent="WIyWlLk6GJQsqaUBKTNV-1">
          <mxGeometry x="20" y="1040" width="450" height="150" as="geometry" />
        </mxCell>
      </root>
    </mxGraphModel>
  </diagram>
</mxfile>
